<svg xmlns="http://www.w3.org/2000/svg" xmlns:xlink="http://www.w3.org/1999/xlink" width="2000" zoomAndPan="magnify" viewBox="0 0 1500 1499.999933" height="2000" preserveAspectRatio="xMidYMid meet" version="1.0"><defs><g/><clipPath id="1d5374ba12"><rect x="0" width="1133" y="0" height="1500"/></clipPath><clipPath id="70de8011f3"><rect x="0" width="1133" y="0" height="1500"/></clipPath><clipPath id="bf6145cf92"><rect x="0" width="1133" y="0" height="1500"/></clipPath><clipPath id="f0eb50d9e8"><rect x="0" width="1133" y="0" height="1500"/></clipPath><clipPath id="320d348ca5"><path d="M 794.996094 661.375 L 1382.886719 661.375 L 1382.886719 854.324219 L 794.996094 854.324219 Z M 794.996094 661.375 " clip-rule="nonzero"/></clipPath><clipPath id="3837a4efec"><path d="M 865.496094 661.375 L 1311.691406 661.375 C 1350.625 661.375 1382.191406 692.9375 1382.191406 731.875 L 1382.191406 783.824219 C 1382.191406 822.757812 1350.625 854.324219 1311.691406 854.324219 L 865.496094 854.324219 C 826.558594 854.324219 794.996094 822.757812 794.996094 783.824219 L 794.996094 731.875 C 794.996094 692.9375 826.558594 661.375 865.496094 661.375 Z M 865.496094 661.375 " clip-rule="nonzero"/></clipPath><clipPath id="419def0f78"><path d="M 0.996094 0.375 L 588.398438 0.375 L 588.398438 193.324219 L 0.996094 193.324219 Z M 0.996094 0.375 " clip-rule="nonzero"/></clipPath><clipPath id="f41557980f"><path d="M 71.496094 0.375 L 517.691406 0.375 C 556.625 0.375 588.191406 31.9375 588.191406 70.875 L 588.191406 122.824219 C 588.191406 161.757812 556.625 193.324219 517.691406 193.324219 L 71.496094 193.324219 C 32.558594 193.324219 0.996094 161.757812 0.996094 122.824219 L 0.996094 70.875 C 0.996094 31.9375 32.558594 0.375 71.496094 0.375 Z M 71.496094 0.375 " clip-rule="nonzero"/></clipPath><clipPath id="860af8471c"><rect x="0" width="589" y="0" height="194"/></clipPath></defs><g transform="matrix(1, 0, 0, 1, 54, 0.000000000000112861)"><g clip-path="url(#1d5374ba12)"><g fill="#1a3a3a" fill-opacity="1"><g transform="translate(-7.241067, 1308.530021)"><g><path d="M 600.671875 15.9375 C 515.691406 15.9375 441.734375 0.664062 378.796875 -29.875 C 315.867188 -60.414062 263.691406 -102.375 222.265625 -155.75 C 180.835938 -209.125 150.03125 -270.863281 129.84375 -340.96875 C 109.664062 -411.070312 99.578125 -485.957031 99.578125 -565.625 C 99.578125 -627.757812 105.816406 -687.503906 118.296875 -744.859375 C 130.773438 -802.222656 150.160156 -855.066406 176.453125 -903.390625 C 202.742188 -951.722656 236.070312 -993.945312 276.4375 -1030.0625 C 316.800781 -1066.175781 364.734375 -1094.191406 420.234375 -1114.109375 C 475.734375 -1134.023438 539.332031 -1143.984375 611.03125 -1143.984375 C 680.601562 -1143.984375 744.46875 -1133.492188 802.625 -1112.515625 C 860.78125 -1091.535156 911.765625 -1059.003906 955.578125 -1014.921875 C 999.390625 -970.847656 1034.570312 -914.019531 1061.125 -844.4375 L 944.828125 -794.25 C 933.140625 -838.332031 915.609375 -875.242188 892.234375 -904.984375 C 868.867188 -934.734375 841.785156 -958.503906 810.984375 -976.296875 C 780.179688 -994.085938 747.253906 -1006.960938 712.203125 -1014.921875 C 677.148438 -1022.890625 641.566406 -1026.875 605.453125 -1026.875 C 536.941406 -1026.875 478.382812 -1014.523438 429.78125 -989.828125 C 381.1875 -965.128906 341.753906 -931.269531 311.484375 -888.25 C 281.210938 -845.238281 259.039062 -796.113281 244.96875 -740.875 C 230.894531 -685.644531 223.859375 -627.757812 223.859375 -567.21875 C 223.859375 -505.070312 231.023438 -445.984375 245.359375 -389.953125 C 259.703125 -333.921875 282.273438 -284.128906 313.078125 -240.578125 C 343.878906 -197.035156 383.710938 -162.78125 432.578125 -137.8125 C 481.441406 -112.851562 540.128906 -100.375 608.640625 -100.375 C 657.492188 -100.375 703.5625 -107.804688 746.84375 -122.671875 C 790.132812 -137.546875 828.90625 -162.109375 863.15625 -196.359375 C 897.414062 -230.617188 925.171875 -276.960938 946.421875 -335.390625 L 1062.71875 -285.203125 C 1020.769531 -189.066406 960.492188 -114.84375 881.890625 -62.53125 C 803.285156 -10.21875 709.546875 15.9375 600.671875 15.9375 Z M 600.671875 15.9375 "/></g></g></g><g fill="#ff00ff" fill-opacity="1"><g transform="translate(7.794191, 1319.057853)"><g><path d="M 600.671875 15.9375 C 515.691406 15.9375 441.734375 0.664062 378.796875 -29.875 C 315.867188 -60.414062 263.691406 -102.375 222.265625 -155.75 C 180.835938 -209.125 150.03125 -270.863281 129.84375 -340.96875 C 109.664062 -411.070312 99.578125 -485.957031 99.578125 -565.625 C 99.578125 -627.757812 105.816406 -687.503906 118.296875 -744.859375 C 130.773438 -802.222656 150.160156 -855.066406 176.453125 -903.390625 C 202.742188 -951.722656 236.070312 -993.945312 276.4375 -1030.0625 C 316.800781 -1066.175781 364.734375 -1094.191406 420.234375 -1114.109375 C 475.734375 -1134.023438 539.332031 -1143.984375 611.03125 -1143.984375 C 680.601562 -1143.984375 744.46875 -1133.492188 802.625 -1112.515625 C 860.78125 -1091.535156 911.765625 -1059.003906 955.578125 -1014.921875 C 999.390625 -970.847656 1034.570312 -914.019531 1061.125 -844.4375 L 944.828125 -794.25 C 933.140625 -838.332031 915.609375 -875.242188 892.234375 -904.984375 C 868.867188 -934.734375 841.785156 -958.503906 810.984375 -976.296875 C 780.179688 -994.085938 747.253906 -1006.960938 712.203125 -1014.921875 C 677.148438 -1022.890625 641.566406 -1026.875 605.453125 -1026.875 C 536.941406 -1026.875 478.382812 -1014.523438 429.78125 -989.828125 C 381.1875 -965.128906 341.753906 -931.269531 311.484375 -888.25 C 281.210938 -845.238281 259.039062 -796.113281 244.96875 -740.875 C 230.894531 -685.644531 223.859375 -627.757812 223.859375 -567.21875 C 223.859375 -505.070312 231.023438 -445.984375 245.359375 -389.953125 C 259.703125 -333.921875 282.273438 -284.128906 313.078125 -240.578125 C 343.878906 -197.035156 383.710938 -162.78125 432.578125 -137.8125 C 481.441406 -112.851562 540.128906 -100.375 608.640625 -100.375 C 657.492188 -100.375 703.5625 -107.804688 746.84375 -122.671875 C 790.132812 -137.546875 828.90625 -162.109375 863.15625 -196.359375 C 897.414062 -230.617188 925.171875 -276.960938 946.421875 -335.390625 L 1062.71875 -285.203125 C 1020.769531 -189.066406 960.492188 -114.84375 881.890625 -62.53125 C 803.285156 -10.21875 709.546875 15.9375 600.671875 15.9375 Z M 600.671875 15.9375 "/></g></g></g><g fill="#000000" fill-opacity="1"><g transform="translate(0.276562, 1313.793936)"><g><path d="M 600.671875 15.9375 C 515.691406 15.9375 441.734375 0.664062 378.796875 -29.875 C 315.867188 -60.414062 263.691406 -102.375 222.265625 -155.75 C 180.835938 -209.125 150.03125 -270.863281 129.84375 -340.96875 C 109.664062 -411.070312 99.578125 -485.957031 99.578125 -565.625 C 99.578125 -627.757812 105.816406 -687.503906 118.296875 -744.859375 C 130.773438 -802.222656 150.160156 -855.066406 176.453125 -903.390625 C 202.742188 -951.722656 236.070312 -993.945312 276.4375 -1030.0625 C 316.800781 -1066.175781 364.734375 -1094.191406 420.234375 -1114.109375 C 475.734375 -1134.023438 539.332031 -1143.984375 611.03125 -1143.984375 C 680.601562 -1143.984375 744.46875 -1133.492188 802.625 -1112.515625 C 860.78125 -1091.535156 911.765625 -1059.003906 955.578125 -1014.921875 C 999.390625 -970.847656 1034.570312 -914.019531 1061.125 -844.4375 L 944.828125 -794.25 C 933.140625 -838.332031 915.609375 -875.242188 892.234375 -904.984375 C 868.867188 -934.734375 841.785156 -958.503906 810.984375 -976.296875 C 780.179688 -994.085938 747.253906 -1006.960938 712.203125 -1014.921875 C 677.148438 -1022.890625 641.566406 -1026.875 605.453125 -1026.875 C 536.941406 -1026.875 478.382812 -1014.523438 429.78125 -989.828125 C 381.1875 -965.128906 341.753906 -931.269531 311.484375 -888.25 C 281.210938 -845.238281 259.039062 -796.113281 244.96875 -740.875 C 230.894531 -685.644531 223.859375 -627.757812 223.859375 -567.21875 C 223.859375 -505.070312 231.023438 -445.984375 245.359375 -389.953125 C 259.703125 -333.921875 282.273438 -284.128906 313.078125 -240.578125 C 343.878906 -197.035156 383.710938 -162.78125 432.578125 -137.8125 C 481.441406 -112.851562 540.128906 -100.375 608.640625 -100.375 C 657.492188 -100.375 703.5625 -107.804688 746.84375 -122.671875 C 790.132812 -137.546875 828.90625 -162.109375 863.15625 -196.359375 C 897.414062 -230.617188 925.171875 -276.960938 946.421875 -335.390625 L 1062.71875 -285.203125 C 1020.769531 -189.066406 960.492188 -114.84375 881.890625 -62.53125 C 803.285156 -10.21875 709.546875 15.9375 600.671875 15.9375 Z M 600.671875 15.9375 "/></g></g></g></g></g><g transform="matrix(1, 0, 0, 1, 122, 0.000000000000112861)"><g clip-path="url(#70de8011f3)"><g fill="#1a3a3a" fill-opacity="1"><g transform="translate(-7.273919, 1308.530021)"><g><path d="M 600.671875 15.9375 C 515.691406 15.9375 441.734375 0.664062 378.796875 -29.875 C 315.867188 -60.414062 263.691406 -102.375 222.265625 -155.75 C 180.835938 -209.125 150.03125 -270.863281 129.84375 -340.96875 C 109.664062 -411.070312 99.578125 -485.957031 99.578125 -565.625 C 99.578125 -627.757812 105.816406 -687.503906 118.296875 -744.859375 C 130.773438 -802.222656 150.160156 -855.066406 176.453125 -903.390625 C 202.742188 -951.722656 236.070312 -993.945312 276.4375 -1030.0625 C 316.800781 -1066.175781 364.734375 -1094.191406 420.234375 -1114.109375 C 475.734375 -1134.023438 539.332031 -1143.984375 611.03125 -1143.984375 C 680.601562 -1143.984375 744.46875 -1133.492188 802.625 -1112.515625 C 860.78125 -1091.535156 911.765625 -1059.003906 955.578125 -1014.921875 C 999.390625 -970.847656 1034.570312 -914.019531 1061.125 -844.4375 L 944.828125 -794.25 C 933.140625 -838.332031 915.609375 -875.242188 892.234375 -904.984375 C 868.867188 -934.734375 841.785156 -958.503906 810.984375 -976.296875 C 780.179688 -994.085938 747.253906 -1006.960938 712.203125 -1014.921875 C 677.148438 -1022.890625 641.566406 -1026.875 605.453125 -1026.875 C 536.941406 -1026.875 478.382812 -1014.523438 429.78125 -989.828125 C 381.1875 -965.128906 341.753906 -931.269531 311.484375 -888.25 C 281.210938 -845.238281 259.039062 -796.113281 244.96875 -740.875 C 230.894531 -685.644531 223.859375 -627.757812 223.859375 -567.21875 C 223.859375 -505.070312 231.023438 -445.984375 245.359375 -389.953125 C 259.703125 -333.921875 282.273438 -284.128906 313.078125 -240.578125 C 343.878906 -197.035156 383.710938 -162.78125 432.578125 -137.8125 C 481.441406 -112.851562 540.128906 -100.375 608.640625 -100.375 C 657.492188 -100.375 703.5625 -107.804688 746.84375 -122.671875 C 790.132812 -137.546875 828.90625 -162.109375 863.15625 -196.359375 C 897.414062 -230.617188 925.171875 -276.960938 946.421875 -335.390625 L 1062.71875 -285.203125 C 1020.769531 -189.066406 960.492188 -114.84375 881.890625 -62.53125 C 803.285156 -10.21875 709.546875 15.9375 600.671875 15.9375 Z M 600.671875 15.9375 "/></g></g></g><g fill="#ff00ff" fill-opacity="1"><g transform="translate(7.761345, 1319.057853)"><g><path d="M 600.671875 15.9375 C 515.691406 15.9375 441.734375 0.664062 378.796875 -29.875 C 315.867188 -60.414062 263.691406 -102.375 222.265625 -155.75 C 180.835938 -209.125 150.03125 -270.863281 129.84375 -340.96875 C 109.664062 -411.070312 99.578125 -485.957031 99.578125 -565.625 C 99.578125 -627.757812 105.816406 -687.503906 118.296875 -744.859375 C 130.773438 -802.222656 150.160156 -855.066406 176.453125 -903.390625 C 202.742188 -951.722656 236.070312 -993.945312 276.4375 -1030.0625 C 316.800781 -1066.175781 364.734375 -1094.191406 420.234375 -1114.109375 C 475.734375 -1134.023438 539.332031 -1143.984375 611.03125 -1143.984375 C 680.601562 -1143.984375 744.46875 -1133.492188 802.625 -1112.515625 C 860.78125 -1091.535156 911.765625 -1059.003906 955.578125 -1014.921875 C 999.390625 -970.847656 1034.570312 -914.019531 1061.125 -844.4375 L 944.828125 -794.25 C 933.140625 -838.332031 915.609375 -875.242188 892.234375 -904.984375 C 868.867188 -934.734375 841.785156 -958.503906 810.984375 -976.296875 C 780.179688 -994.085938 747.253906 -1006.960938 712.203125 -1014.921875 C 677.148438 -1022.890625 641.566406 -1026.875 605.453125 -1026.875 C 536.941406 -1026.875 478.382812 -1014.523438 429.78125 -989.828125 C 381.1875 -965.128906 341.753906 -931.269531 311.484375 -888.25 C 281.210938 -845.238281 259.039062 -796.113281 244.96875 -740.875 C 230.894531 -685.644531 223.859375 -627.757812 223.859375 -567.21875 C 223.859375 -505.070312 231.023438 -445.984375 245.359375 -389.953125 C 259.703125 -333.921875 282.273438 -284.128906 313.078125 -240.578125 C 343.878906 -197.035156 383.710938 -162.78125 432.578125 -137.8125 C 481.441406 -112.851562 540.128906 -100.375 608.640625 -100.375 C 657.492188 -100.375 703.5625 -107.804688 746.84375 -122.671875 C 790.132812 -137.546875 828.90625 -162.109375 863.15625 -196.359375 C 897.414062 -230.617188 925.171875 -276.960938 946.421875 -335.390625 L 1062.71875 -285.203125 C 1020.769531 -189.066406 960.492188 -114.84375 881.890625 -62.53125 C 803.285156 -10.21875 709.546875 15.9375 600.671875 15.9375 Z M 600.671875 15.9375 "/></g></g></g><g fill="#000000" fill-opacity="1"><g transform="translate(0.243709, 1313.793936)"><g><path d="M 600.671875 15.9375 C 515.691406 15.9375 441.734375 0.664062 378.796875 -29.875 C 315.867188 -60.414062 263.691406 -102.375 222.265625 -155.75 C 180.835938 -209.125 150.03125 -270.863281 129.84375 -340.96875 C 109.664062 -411.070312 99.578125 -485.957031 99.578125 -565.625 C 99.578125 -627.757812 105.816406 -687.503906 118.296875 -744.859375 C 130.773438 -802.222656 150.160156 -855.066406 176.453125 -903.390625 C 202.742188 -951.722656 236.070312 -993.945312 276.4375 -1030.0625 C 316.800781 -1066.175781 364.734375 -1094.191406 420.234375 -1114.109375 C 475.734375 -1134.023438 539.332031 -1143.984375 611.03125 -1143.984375 C 680.601562 -1143.984375 744.46875 -1133.492188 802.625 -1112.515625 C 860.78125 -1091.535156 911.765625 -1059.003906 955.578125 -1014.921875 C 999.390625 -970.847656 1034.570312 -914.019531 1061.125 -844.4375 L 944.828125 -794.25 C 933.140625 -838.332031 915.609375 -875.242188 892.234375 -904.984375 C 868.867188 -934.734375 841.785156 -958.503906 810.984375 -976.296875 C 780.179688 -994.085938 747.253906 -1006.960938 712.203125 -1014.921875 C 677.148438 -1022.890625 641.566406 -1026.875 605.453125 -1026.875 C 536.941406 -1026.875 478.382812 -1014.523438 429.78125 -989.828125 C 381.1875 -965.128906 341.753906 -931.269531 311.484375 -888.25 C 281.210938 -845.238281 259.039062 -796.113281 244.96875 -740.875 C 230.894531 -685.644531 223.859375 -627.757812 223.859375 -567.21875 C 223.859375 -505.070312 231.023438 -445.984375 245.359375 -389.953125 C 259.703125 -333.921875 282.273438 -284.128906 313.078125 -240.578125 C 343.878906 -197.035156 383.710938 -162.78125 432.578125 -137.8125 C 481.441406 -112.851562 540.128906 -100.375 608.640625 -100.375 C 657.492188 -100.375 703.5625 -107.804688 746.84375 -122.671875 C 790.132812 -137.546875 828.90625 -162.109375 863.15625 -196.359375 C 897.414062 -230.617188 925.171875 -276.960938 946.421875 -335.390625 L 1062.71875 -285.203125 C 1020.769531 -189.066406 960.492188 -114.84375 881.890625 -62.53125 C 803.285156 -10.21875 709.546875 15.9375 600.671875 15.9375 Z M 600.671875 15.9375 "/></g></g></g></g></g><g transform="matrix(1, 0, 0, 1, 175, 0.000000000000112861)"><g clip-path="url(#bf6145cf92)"><g fill="#1a3a3a" fill-opacity="1"><g transform="translate(-6.779756, 1308.530021)"><g><path d="M 600.671875 15.9375 C 515.691406 15.9375 441.734375 0.664062 378.796875 -29.875 C 315.867188 -60.414062 263.691406 -102.375 222.265625 -155.75 C 180.835938 -209.125 150.03125 -270.863281 129.84375 -340.96875 C 109.664062 -411.070312 99.578125 -485.957031 99.578125 -565.625 C 99.578125 -627.757812 105.816406 -687.503906 118.296875 -744.859375 C 130.773438 -802.222656 150.160156 -855.066406 176.453125 -903.390625 C 202.742188 -951.722656 236.070312 -993.945312 276.4375 -1030.0625 C 316.800781 -1066.175781 364.734375 -1094.191406 420.234375 -1114.109375 C 475.734375 -1134.023438 539.332031 -1143.984375 611.03125 -1143.984375 C 680.601562 -1143.984375 744.46875 -1133.492188 802.625 -1112.515625 C 860.78125 -1091.535156 911.765625 -1059.003906 955.578125 -1014.921875 C 999.390625 -970.847656 1034.570312 -914.019531 1061.125 -844.4375 L 944.828125 -794.25 C 933.140625 -838.332031 915.609375 -875.242188 892.234375 -904.984375 C 868.867188 -934.734375 841.785156 -958.503906 810.984375 -976.296875 C 780.179688 -994.085938 747.253906 -1006.960938 712.203125 -1014.921875 C 677.148438 -1022.890625 641.566406 -1026.875 605.453125 -1026.875 C 536.941406 -1026.875 478.382812 -1014.523438 429.78125 -989.828125 C 381.1875 -965.128906 341.753906 -931.269531 311.484375 -888.25 C 281.210938 -845.238281 259.039062 -796.113281 244.96875 -740.875 C 230.894531 -685.644531 223.859375 -627.757812 223.859375 -567.21875 C 223.859375 -505.070312 231.023438 -445.984375 245.359375 -389.953125 C 259.703125 -333.921875 282.273438 -284.128906 313.078125 -240.578125 C 343.878906 -197.035156 383.710938 -162.78125 432.578125 -137.8125 C 481.441406 -112.851562 540.128906 -100.375 608.640625 -100.375 C 657.492188 -100.375 703.5625 -107.804688 746.84375 -122.671875 C 790.132812 -137.546875 828.90625 -162.109375 863.15625 -196.359375 C 897.414062 -230.617188 925.171875 -276.960938 946.421875 -335.390625 L 1062.71875 -285.203125 C 1020.769531 -189.066406 960.492188 -114.84375 881.890625 -62.53125 C 803.285156 -10.21875 709.546875 15.9375 600.671875 15.9375 Z M 600.671875 15.9375 "/></g></g></g><g fill="#ff00ff" fill-opacity="1"><g transform="translate(8.255516, 1319.057853)"><g><path d="M 600.671875 15.9375 C 515.691406 15.9375 441.734375 0.664062 378.796875 -29.875 C 315.867188 -60.414062 263.691406 -102.375 222.265625 -155.75 C 180.835938 -209.125 150.03125 -270.863281 129.84375 -340.96875 C 109.664062 -411.070312 99.578125 -485.957031 99.578125 -565.625 C 99.578125 -627.757812 105.816406 -687.503906 118.296875 -744.859375 C 130.773438 -802.222656 150.160156 -855.066406 176.453125 -903.390625 C 202.742188 -951.722656 236.070312 -993.945312 276.4375 -1030.0625 C 316.800781 -1066.175781 364.734375 -1094.191406 420.234375 -1114.109375 C 475.734375 -1134.023438 539.332031 -1143.984375 611.03125 -1143.984375 C 680.601562 -1143.984375 744.46875 -1133.492188 802.625 -1112.515625 C 860.78125 -1091.535156 911.765625 -1059.003906 955.578125 -1014.921875 C 999.390625 -970.847656 1034.570312 -914.019531 1061.125 -844.4375 L 944.828125 -794.25 C 933.140625 -838.332031 915.609375 -875.242188 892.234375 -904.984375 C 868.867188 -934.734375 841.785156 -958.503906 810.984375 -976.296875 C 780.179688 -994.085938 747.253906 -1006.960938 712.203125 -1014.921875 C 677.148438 -1022.890625 641.566406 -1026.875 605.453125 -1026.875 C 536.941406 -1026.875 478.382812 -1014.523438 429.78125 -989.828125 C 381.1875 -965.128906 341.753906 -931.269531 311.484375 -888.25 C 281.210938 -845.238281 259.039062 -796.113281 244.96875 -740.875 C 230.894531 -685.644531 223.859375 -627.757812 223.859375 -567.21875 C 223.859375 -505.070312 231.023438 -445.984375 245.359375 -389.953125 C 259.703125 -333.921875 282.273438 -284.128906 313.078125 -240.578125 C 343.878906 -197.035156 383.710938 -162.78125 432.578125 -137.8125 C 481.441406 -112.851562 540.128906 -100.375 608.640625 -100.375 C 657.492188 -100.375 703.5625 -107.804688 746.84375 -122.671875 C 790.132812 -137.546875 828.90625 -162.109375 863.15625 -196.359375 C 897.414062 -230.617188 925.171875 -276.960938 946.421875 -335.390625 L 1062.71875 -285.203125 C 1020.769531 -189.066406 960.492188 -114.84375 881.890625 -62.53125 C 803.285156 -10.21875 709.546875 15.9375 600.671875 15.9375 Z M 600.671875 15.9375 "/></g></g></g><g fill="#000000" fill-opacity="1"><g transform="translate(0.73788, 1313.793936)"><g><path d="M 600.671875 15.9375 C 515.691406 15.9375 441.734375 0.664062 378.796875 -29.875 C 315.867188 -60.414062 263.691406 -102.375 222.265625 -155.75 C 180.835938 -209.125 150.03125 -270.863281 129.84375 -340.96875 C 109.664062 -411.070312 99.578125 -485.957031 99.578125 -565.625 C 99.578125 -627.757812 105.816406 -687.503906 118.296875 -744.859375 C 130.773438 -802.222656 150.160156 -855.066406 176.453125 -903.390625 C 202.742188 -951.722656 236.070312 -993.945312 276.4375 -1030.0625 C 316.800781 -1066.175781 364.734375 -1094.191406 420.234375 -1114.109375 C 475.734375 -1134.023438 539.332031 -1143.984375 611.03125 -1143.984375 C 680.601562 -1143.984375 744.46875 -1133.492188 802.625 -1112.515625 C 860.78125 -1091.535156 911.765625 -1059.003906 955.578125 -1014.921875 C 999.390625 -970.847656 1034.570312 -914.019531 1061.125 -844.4375 L 944.828125 -794.25 C 933.140625 -838.332031 915.609375 -875.242188 892.234375 -904.984375 C 868.867188 -934.734375 841.785156 -958.503906 810.984375 -976.296875 C 780.179688 -994.085938 747.253906 -1006.960938 712.203125 -1014.921875 C 677.148438 -1022.890625 641.566406 -1026.875 605.453125 -1026.875 C 536.941406 -1026.875 478.382812 -1014.523438 429.78125 -989.828125 C 381.1875 -965.128906 341.753906 -931.269531 311.484375 -888.25 C 281.210938 -845.238281 259.039062 -796.113281 244.96875 -740.875 C 230.894531 -685.644531 223.859375 -627.757812 223.859375 -567.21875 C 223.859375 -505.070312 231.023438 -445.984375 245.359375 -389.953125 C 259.703125 -333.921875 282.273438 -284.128906 313.078125 -240.578125 C 343.878906 -197.035156 383.710938 -162.78125 432.578125 -137.8125 C 481.441406 -112.851562 540.128906 -100.375 608.640625 -100.375 C 657.492188 -100.375 703.5625 -107.804688 746.84375 -122.671875 C 790.132812 -137.546875 828.90625 -162.109375 863.15625 -196.359375 C 897.414062 -230.617188 925.171875 -276.960938 946.421875 -335.390625 L 1062.71875 -285.203125 C 1020.769531 -189.066406 960.492188 -114.84375 881.890625 -62.53125 C 803.285156 -10.21875 709.546875 15.9375 600.671875 15.9375 Z M 600.671875 15.9375 "/></g></g></g></g></g><g transform="matrix(1, 0, 0, 1, 250, 0.000000000000112861)"><g clip-path="url(#f0eb50d9e8)"><g fill="#1a3a3a" fill-opacity="1"><g transform="translate(-6.563552, 1308.530021)"><g><path d="M 600.671875 15.9375 C 515.691406 15.9375 441.734375 0.664062 378.796875 -29.875 C 315.867188 -60.414062 263.691406 -102.375 222.265625 -155.75 C 180.835938 -209.125 150.03125 -270.863281 129.84375 -340.96875 C 109.664062 -411.070312 99.578125 -485.957031 99.578125 -565.625 C 99.578125 -627.757812 105.816406 -687.503906 118.296875 -744.859375 C 130.773438 -802.222656 150.160156 -855.066406 176.453125 -903.390625 C 202.742188 -951.722656 236.070312 -993.945312 276.4375 -1030.0625 C 316.800781 -1066.175781 364.734375 -1094.191406 420.234375 -1114.109375 C 475.734375 -1134.023438 539.332031 -1143.984375 611.03125 -1143.984375 C 680.601562 -1143.984375 744.46875 -1133.492188 802.625 -1112.515625 C 860.78125 -1091.535156 911.765625 -1059.003906 955.578125 -1014.921875 C 999.390625 -970.847656 1034.570312 -914.019531 1061.125 -844.4375 L 944.828125 -794.25 C 933.140625 -838.332031 915.609375 -875.242188 892.234375 -904.984375 C 868.867188 -934.734375 841.785156 -958.503906 810.984375 -976.296875 C 780.179688 -994.085938 747.253906 -1006.960938 712.203125 -1014.921875 C 677.148438 -1022.890625 641.566406 -1026.875 605.453125 -1026.875 C 536.941406 -1026.875 478.382812 -1014.523438 429.78125 -989.828125 C 381.1875 -965.128906 341.753906 -931.269531 311.484375 -888.25 C 281.210938 -845.238281 259.039062 -796.113281 244.96875 -740.875 C 230.894531 -685.644531 223.859375 -627.757812 223.859375 -567.21875 C 223.859375 -505.070312 231.023438 -445.984375 245.359375 -389.953125 C 259.703125 -333.921875 282.273438 -284.128906 313.078125 -240.578125 C 343.878906 -197.035156 383.710938 -162.78125 432.578125 -137.8125 C 481.441406 -112.851562 540.128906 -100.375 608.640625 -100.375 C 657.492188 -100.375 703.5625 -107.804688 746.84375 -122.671875 C 790.132812 -137.546875 828.90625 -162.109375 863.15625 -196.359375 C 897.414062 -230.617188 925.171875 -276.960938 946.421875 -335.390625 L 1062.71875 -285.203125 C 1020.769531 -189.066406 960.492188 -114.84375 881.890625 -62.53125 C 803.285156 -10.21875 709.546875 15.9375 600.671875 15.9375 Z M 600.671875 15.9375 "/></g></g></g><g fill="#ff00ff" fill-opacity="1"><g transform="translate(8.47172, 1319.057853)"><g><path d="M 600.671875 15.9375 C 515.691406 15.9375 441.734375 0.664062 378.796875 -29.875 C 315.867188 -60.414062 263.691406 -102.375 222.265625 -155.75 C 180.835938 -209.125 150.03125 -270.863281 129.84375 -340.96875 C 109.664062 -411.070312 99.578125 -485.957031 99.578125 -565.625 C 99.578125 -627.757812 105.816406 -687.503906 118.296875 -744.859375 C 130.773438 -802.222656 150.160156 -855.066406 176.453125 -903.390625 C 202.742188 -951.722656 236.070312 -993.945312 276.4375 -1030.0625 C 316.800781 -1066.175781 364.734375 -1094.191406 420.234375 -1114.109375 C 475.734375 -1134.023438 539.332031 -1143.984375 611.03125 -1143.984375 C 680.601562 -1143.984375 744.46875 -1133.492188 802.625 -1112.515625 C 860.78125 -1091.535156 911.765625 -1059.003906 955.578125 -1014.921875 C 999.390625 -970.847656 1034.570312 -914.019531 1061.125 -844.4375 L 944.828125 -794.25 C 933.140625 -838.332031 915.609375 -875.242188 892.234375 -904.984375 C 868.867188 -934.734375 841.785156 -958.503906 810.984375 -976.296875 C 780.179688 -994.085938 747.253906 -1006.960938 712.203125 -1014.921875 C 677.148438 -1022.890625 641.566406 -1026.875 605.453125 -1026.875 C 536.941406 -1026.875 478.382812 -1014.523438 429.78125 -989.828125 C 381.1875 -965.128906 341.753906 -931.269531 311.484375 -888.25 C 281.210938 -845.238281 259.039062 -796.113281 244.96875 -740.875 C 230.894531 -685.644531 223.859375 -627.757812 223.859375 -567.21875 C 223.859375 -505.070312 231.023438 -445.984375 245.359375 -389.953125 C 259.703125 -333.921875 282.273438 -284.128906 313.078125 -240.578125 C 343.878906 -197.035156 383.710938 -162.78125 432.578125 -137.8125 C 481.441406 -112.851562 540.128906 -100.375 608.640625 -100.375 C 657.492188 -100.375 703.5625 -107.804688 746.84375 -122.671875 C 790.132812 -137.546875 828.90625 -162.109375 863.15625 -196.359375 C 897.414062 -230.617188 925.171875 -276.960938 946.421875 -335.390625 L 1062.71875 -285.203125 C 1020.769531 -189.066406 960.492188 -114.84375 881.890625 -62.53125 C 803.285156 -10.21875 709.546875 15.9375 600.671875 15.9375 Z M 600.671875 15.9375 "/></g></g></g><g fill="#000000" fill-opacity="1"><g transform="translate(0.954084, 1313.793936)"><g><path d="M 600.671875 15.9375 C 515.691406 15.9375 441.734375 0.664062 378.796875 -29.875 C 315.867188 -60.414062 263.691406 -102.375 222.265625 -155.75 C 180.835938 -209.125 150.03125 -270.863281 129.84375 -340.96875 C 109.664062 -411.070312 99.578125 -485.957031 99.578125 -565.625 C 99.578125 -627.757812 105.816406 -687.503906 118.296875 -744.859375 C 130.773438 -802.222656 150.160156 -855.066406 176.453125 -903.390625 C 202.742188 -951.722656 236.070312 -993.945312 276.4375 -1030.0625 C 316.800781 -1066.175781 364.734375 -1094.191406 420.234375 -1114.109375 C 475.734375 -1134.023438 539.332031 -1143.984375 611.03125 -1143.984375 C 680.601562 -1143.984375 744.46875 -1133.492188 802.625 -1112.515625 C 860.78125 -1091.535156 911.765625 -1059.003906 955.578125 -1014.921875 C 999.390625 -970.847656 1034.570312 -914.019531 1061.125 -844.4375 L 944.828125 -794.25 C 933.140625 -838.332031 915.609375 -875.242188 892.234375 -904.984375 C 868.867188 -934.734375 841.785156 -958.503906 810.984375 -976.296875 C 780.179688 -994.085938 747.253906 -1006.960938 712.203125 -1014.921875 C 677.148438 -1022.890625 641.566406 -1026.875 605.453125 -1026.875 C 536.941406 -1026.875 478.382812 -1014.523438 429.78125 -989.828125 C 381.1875 -965.128906 341.753906 -931.269531 311.484375 -888.25 C 281.210938 -845.238281 259.039062 -796.113281 244.96875 -740.875 C 230.894531 -685.644531 223.859375 -627.757812 223.859375 -567.21875 C 223.859375 -505.070312 231.023438 -445.984375 245.359375 -389.953125 C 259.703125 -333.921875 282.273438 -284.128906 313.078125 -240.578125 C 343.878906 -197.035156 383.710938 -162.78125 432.578125 -137.8125 C 481.441406 -112.851562 540.128906 -100.375 608.640625 -100.375 C 657.492188 -100.375 703.5625 -107.804688 746.84375 -122.671875 C 790.132812 -137.546875 828.90625 -162.109375 863.15625 -196.359375 C 897.414062 -230.617188 925.171875 -276.960938 946.421875 -335.390625 L 1062.71875 -285.203125 C 1020.769531 -189.066406 960.492188 -114.84375 881.890625 -62.53125 C 803.285156 -10.21875 709.546875 15.9375 600.671875 15.9375 Z M 600.671875 15.9375 "/></g></g></g></g></g><g clip-path="url(#320d348ca5)"><g clip-path="url(#3837a4efec)"><g transform="matrix(1, 0, 0, 1, 794, 661)"><g clip-path="url(#860af8471c)"><g clip-path="url(#419def0f78)"><g clip-path="url(#f41557980f)"><path fill="#000000" d="M 0.996094 0.375 L 588.132812 0.375 L 588.132812 193.324219 L 0.996094 193.324219 Z M 0.996094 0.375 " fill-opacity="1" fill-rule="nonzero"/></g></g></g></g></g></g></svg>